<svg class="icon" viewBox="0 0 1393 1024" xmlns="http://www.w3.org/2000/svg" width="174.125" height="128"><defs><style/></defs><path d="M31.588000000000005 395.255L576.935 13.4q60.648-42.467 103.115 18.182 42.467 60.649-18.182 103.115L116.522 516.553Q55.873 559.02 13.406 498.37q-42.466-60.649 18.182-103.116z"/><path d="M116.511 395.142l545.346 381.856q60.649 42.467 18.182 103.115-42.467 60.65-103.116 18.182L31.577 516.44q-60.649-42.467-18.182-103.116 42.467-60.648 103.116-18.182zM591.475 395.248L1136.82 13.393q60.649-42.467 103.116 18.182 42.466 60.649-18.182 103.115L676.408 516.546q-60.648 42.467-103.115-18.182-42.467-60.649 18.182-103.116z"/><path d="M676.411 395.15l545.346 381.856q60.649 42.466 18.182 103.115-42.466 60.649-103.115 18.182L591.477 516.448q-60.648-42.467-18.182-103.116 42.467-60.649 103.116-18.182z"/></svg>