<svg class="icon" viewBox="0 0 1024 1024" xmlns="http://www.w3.org/2000/svg" width="128" height="128">
  <defs>
    <style/>
  </defs>
  <path d="M514.317 935.897c-106.368 0-206.37-41.427-281.586-116.65-75.21-75.217-116.632-175.22-116.632-281.587S157.52 331.291 232.73 256.073c75.215-75.221 175.217-116.648 281.586-116.648s206.374 41.426 281.588 116.648c75.21 75.218 116.632 175.222 116.632 281.587s-41.42 206.37-116.633 281.588c-75.215 75.223-175.217 116.65-281.587 116.65zm0-746.647c-192.104 0-348.394 156.296-348.394 348.411s156.289 348.413 348.394 348.413c192.107 0 348.396-156.298 348.396-348.414s-156.29-348.41-348.396-348.41z"/>
  <path d="M593.862 659.687c-7.211 0-14.362-3.114-19.287-9.128l-85.17-103.983V308.87c0-13.76 11.153-24.913 24.912-24.913s24.913 11.153 24.913 24.913v219.907l73.892 90.212c8.718 10.643 7.157 26.339-3.488 35.058a24.816 24.816 0 0 1-15.772 5.64zM257.997 863.7l-68.14 82.749m-.014 24.913a24.8 24.8 0 0 1-15.821-5.681c-10.621-8.746-12.142-24.447-3.395-35.069l68.14-82.749c8.745-10.621 24.445-12.142 35.066-3.395 10.621 8.746 12.142 24.447 3.395 35.069l-68.14 82.748c-4.925 5.982-12.057 9.077-19.245 9.077zM768.047 863.7l70.697 82.749m.011 24.912c-7.035 0-14.024-2.962-18.952-8.73l-70.696-82.748c-8.938-10.463-7.703-26.187 2.758-35.123 10.464-8.938 26.187-7.7 35.122 2.759l70.698 82.748c8.936 10.46 7.701 26.187-2.76 35.123a24.815 24.815 0 0 1-16.17 5.971zM937.5 307.507c-43.733-101.33-124.69-182.055-226.202-225.404 28.392-22.382 63.458-34.553 99.587-34.52 88.992 0 161.184 71.959 161.184 160.703 0 37.507-13.018 71.892-34.57 99.22m-848.19 5.58a163.008 163.008 0 0 1-35.332-101.363C53.977 121.07 127.696 47.6 218.63 47.6c38.42 0 73.685 13.217 101.695 35.215A439.83 439.83 0 0 0 89.31 313.085"/>
</svg>
