<svg class="icon" viewBox="0 0 1024 1024" xmlns="http://www.w3.org/2000/svg" width="128" height="128"><defs><style/></defs><path d="M637.542 775.014a25.088 25.088 0 0025.088-25.088V398.131a25.088 25.088 0 00-50.176 0v351.795a25.088 25.088 0 0025.088 25.088zm-251.238 0a25.088 25.088 0 0025.088-25.088V398.131a25.088 25.088 0 00-50.176 0v351.795c0 13.876 11.213 25.088 25.088 25.088zm125.645 0a25.088 25.088 0 0025.088-25.088V398.131a25.088 25.088 0 00-50.176 0v351.795c0 13.876 11.213 25.088 25.088 25.088z"/><path d="M888.883 251.648H721.715v-52.326c0-34.202-27.853-62.055-62.054-62.055H364.339c-16.589 0-32.153 6.451-43.878 18.176a61.747 61.747 0 00-18.227 43.879v52.326H135.066a25.088 25.088 0 000 50.176h75.366v559.82c0 13.774 11.162 25.089 25.088 25.089h552.858a25.088 25.088 0 0025.088-25.088V301.824h75.366a25.14 25.14 0 00.051-50.176zm-542.669-52.326c0-4.813 1.895-9.37 5.274-12.8a18.278 18.278 0 0112.851-5.274h295.322c9.984 0 18.073 8.14 18.073 18.074v52.326h-15.001v-.102H361.216v.102h-15.002v-52.326zm416.973 637.132H260.71v-534.63h502.477v534.63z"/></svg>