<svg class="icon" viewBox="0 0 1024 1024" xmlns="http://www.w3.org/2000/svg" width="6" height="6">
  <defs>
    <style/>
  </defs>
  <path d="M408 441.984h480a8 8 0 0 0 8-8v-56a8 8 0 0 0-8-8H408a8 8 0 0 0-8 8v56c0 4.416 3.584 8 8 8zm-8 204.032c0 4.416 3.584 8 8 8h480a8 8 0 0 0 8-8v-56a8 8 0 0 0-8-8H408a8 8 0 0 0-8 8v56zM904 160H120a8 8 0 0 0-8 8v56c0 4.416 3.584 8 8 8h784a8 8 0 0 0 8-8v-56a8 8 0 0 0-8-8zm0 632H120a8 8 0 0 0-8 8v56c0 4.416 3.584 8 8 8h784a8 8 0 0 0 8-8v-56a8 8 0 0 0-8-8zM115.392 518.912 271.68 641.984c5.76 4.608 14.4.512 14.4-6.912V388.928a8.832 8.832 0 0 0-14.4-6.912L115.392 505.088a8.768 8.768 0 0 0 0 13.824z"/>
</svg>
