<svg class="icon" viewBox="0 0 1024 1024" xmlns="http://www.w3.org/2000/svg" width="128" height="128">
  <defs>
    <style/>
  </defs>
  <path d="M396.61 0a117.029 117.029 0 0 0 232.419 6.612 509.367 509.367 0 0 1 149.884 66.736 117.029 117.029 0 0 0 158.925 165.361 507.904 507.904 0 0 1 60.035 149.328 117.029 117.029 0 0 0 0 227.621 508.957 508.957 0 0 1-60.035 149.358 117.029 117.029 0 0 0-158.954 165.303 508.43 508.43 0 0 1-149.885 66.764 116.97 116.97 0 0 0-232.39 6.583 507.992 507.992 0 0 1-158.807-61.118 117.029 117.029 0 0 0-164.718-165.83l-4.096 3.833-7.724-12.288A508.928 508.928 0 0 1 0 618.876h1.17a117.029 117.029 0 1 0 0-234.057H0a508.782 508.782 0 0 1 69.047-161.704A117.029 117.029 0 1 0 238.329 61.733l-3.745-3.95 3.218 3.364A508.723 508.723 0 0 1 395.381.263L396.61 0zM513.2 282.42a204.8 204.8 0 1 0 0 409.6 204.8 204.8 0 0 0 0-409.6z"/>
</svg>
